<?xml version="1.0" encoding="UTF-8"?>
<svg version="1.1" xmlns="http://www.w3.org/2000/svg" width="360" height="360">
<path d="M0 0 C1.50343408 -0.00668677 1.50343408 -0.00668677 3.03724056 -0.01350862 C4.13119308 -0.01332426 5.2251456 -0.01313989 6.35224819 -0.01294994 C7.52003305 -0.01662663 8.68781792 -0.02030332 9.8909902 -0.02409142 C13.12878414 -0.03319943 16.36654829 -0.03782382 19.60435283 -0.04048073 C23.09805927 -0.04439189 26.59175115 -0.05396965 30.08544827 -0.0626936 C38.5210147 -0.08243521 46.95658229 -0.09252133 55.39216605 -0.10142139 C59.36792987 -0.1058081 63.34369237 -0.11117392 67.31945515 -0.11641026 C80.54145595 -0.1334203 93.76345594 -0.14791349 106.985466 -0.155159 C110.41489125 -0.15706878 113.8443165 -0.15898913 117.27374172 -0.16094494 C118.55223853 -0.16167055 118.55223853 -0.16167055 119.85656356 -0.16241082 C133.6574477 -0.17070751 147.45824506 -0.19603932 161.25909133 -0.22852562 C175.4387049 -0.26163048 189.61827443 -0.27961086 203.79792684 -0.28280324 C211.75498299 -0.28496517 219.7119126 -0.29366733 227.66893101 -0.31926441 C234.44678771 -0.34101832 241.22448712 -0.34899887 248.00237478 -0.33929763 C251.45709874 -0.33476641 254.91149849 -0.33656959 258.36617756 -0.35605907 C262.12140853 -0.37379442 265.87582463 -0.36666241 269.63105679 -0.35352612 C270.70939425 -0.36449536 271.78773172 -0.37546461 272.89874607 -0.38676625 C285.32578486 -0.28227774 295.74298904 3.74569792 304.93609524 12.13422108 C313.64427673 22.1821228 316.09068859 33.96384312 316.07653713 46.90562916 C316.08099382 48.19434476 316.08099382 48.19434476 316.08554053 49.50909501 C316.09418151 52.3752766 316.09573187 55.24141619 316.09722805 58.10760975 C316.10185947 60.16796424 316.10688457 62.22831789 316.11227322 64.28867054 C316.12536774 69.87772616 316.13183639 75.46676979 316.13628387 81.05583835 C316.13921929 84.55106151 316.14332498 88.04628143 316.14778805 91.54150295 C316.16145506 102.4871911 316.17112568 113.43287179 316.17498994 124.37856787 C316.17946921 136.99538797 316.19701447 149.61209965 316.22599053 162.22888678 C316.24763541 171.99389274 316.25769572 181.75886826 316.25903106 191.52389795 C316.26007704 197.35033359 316.26594104 203.17666721 316.28385067 209.00307751 C316.30037992 214.48686503 316.30246329 219.97047436 316.29371166 225.45427799 C316.29294389 227.46010727 316.29724945 229.46594632 316.30716991 231.47175121 C316.38563516 248.33348213 315.210562 263.11323275 303.28375149 276.02093983 C295.13216844 283.35872091 285.65099467 286.45447224 274.90142727 286.36127186 C273.56875065 286.36170994 273.56875065 286.36170994 272.20915127 286.36215687 C269.28730233 286.36076915 266.36571185 286.34523424 263.44390774 286.32953358 C261.41224208 286.32580146 259.38057462 286.32295543 257.34890652 286.32095814 C252.01254171 286.31333732 246.6762865 286.29370211 241.33996487 286.27155018 C235.89025257 286.25105834 230.44052249 286.24194928 224.99078274 286.23187733 C214.30583111 286.21045477 203.62098945 286.17528524 192.93609524 286.13422108 C192.93609524 295.37422108 192.93609524 304.61422108 192.93609524 314.13422108 C156.96609524 314.13422108 120.99609524 314.13422108 83.93609524 314.13422108 C83.60609524 305.22422108 83.27609524 296.31422108 82.93609524 287.13422108 C78.93295193 287.12020252 78.93295193 287.12020252 74.84893703 287.10590076 C65.99995295 287.07202997 57.15119959 287.01642506 48.30240059 286.95031834 C42.94094774 286.91092437 37.57965715 286.8786963 32.21807766 286.86322498 C27.03721168 286.84800514 21.85679204 286.81346533 16.67612553 286.76591206 C14.70637627 286.75115306 12.73656328 286.74318323 10.76675892 286.74233723 C-4.86311596 286.72888154 -16.48871441 285.28775167 -28.19281101 274.09906483 C-36.47996276 265.44563013 -39.21656167 256.15850712 -39.20434666 244.40640736 C-39.20731778 243.51574735 -39.2102889 242.62508734 -39.21335006 241.70743763 C-39.22203606 238.71671405 -39.22354524 235.7260305 -39.22503757 232.7352953 C-39.22966588 230.59332157 -39.23469056 228.45134866 -39.24008274 226.30937672 C-39.25320909 220.48474805 -39.25965238 214.6601309 -39.2640934 208.83548975 C-39.26702426 205.19573753 -39.27112914 201.55598846 -39.27559757 197.91623783 C-39.28927427 186.5263088 -39.2989396 175.13638698 -39.30279946 163.7464503 C-39.30727819 150.60264724 -39.32481684 137.45894826 -39.35380006 124.31517684 C-39.37542837 114.15366302 -39.38550439 103.99217846 -39.38684058 93.83064187 C-39.38788795 87.76277645 -39.39378119 81.69500886 -39.41166019 75.6271677 C-39.42816023 69.91607337 -39.43028689 64.20515019 -39.42152119 58.49404049 C-39.4207518 56.40190834 -39.42508046 54.30976692 -39.43497944 52.21765804 C-39.44773547 49.35288215 -39.44180219 46.48870911 -39.43139744 43.62393665 C-39.43945384 42.80367587 -39.44751025 41.98341509 -39.45581079 41.13829792 C-39.36281299 30.126374 -35.42557633 20.10208553 -28.05999851 11.90375233 C-20.24413651 4.45141879 -10.85913183 0.02249426 0 0 Z M-9.37640476 32.63422108 C-12.21839498 36.84457696 -12.21041632 40.50405562 -12.20434666 45.40199757 C-12.20731778 46.14761753 -12.2102889 46.89323749 -12.21335006 47.661452 C-12.22204163 50.16711613 -12.22354569 52.67273251 -12.22503757 55.17841053 C-12.22966542 56.97205171 -12.23469003 58.7656919 -12.24008274 60.55933094 C-12.25321186 65.43749938 -12.25965268 70.31565405 -12.2640934 75.1938374 C-12.26702326 78.24073647 -12.2711279 81.28763176 -12.27559757 84.33452892 C-12.28927376 93.86528802 -12.29893986 103.39603851 -12.30279946 112.92680675 C-12.30728087 123.93293944 -12.32483212 134.93894797 -12.35380006 145.94504291 C-12.37540785 154.44958797 -12.38550326 162.95409809 -12.38684058 171.45867032 C-12.38788924 176.53938961 -12.39381008 181.61999222 -12.41166019 186.70068264 C-12.42812527 191.48018087 -12.43030397 196.25947451 -12.42152119 201.03899097 C-12.42074998 202.79255375 -12.42510456 204.54612745 -12.43497944 206.29966259 C-12.44767772 208.6951836 -12.44183401 211.08997766 -12.43139744 213.48549366 C-12.43945384 214.17801379 -12.44751025 214.87053392 -12.45581079 215.58403951 C-12.40931192 220.15329639 -11.44512534 223.24665484 -9.06390476 227.13422108 C-4.94842275 230.94104194 -1.90490421 232.25744284 3.64572525 232.26564884 C4.61986557 232.26948999 5.59400589 232.27333113 6.59766561 232.27728868 C7.67040894 232.27642219 8.74315227 232.27555571 9.84840298 232.27466297 C11.55486446 232.27911965 11.55486446 232.27911965 13.29579991 232.28366637 C17.12813552 232.29237484 20.96043996 232.29386343 24.79278469 232.29535389 C27.53222749 232.2994416 30.27166699 232.30498419 33.01110744 232.31039906 C40.46770479 232.32398599 47.92429677 232.33000762 55.38090444 232.33440971 C60.03589603 232.33717146 64.69088555 232.34140868 69.34587574 232.34591389 C82.23153745 232.35810689 95.11719749 232.36840623 108.00286484 232.37178898 C108.82771364 232.37200854 109.65256245 232.37222811 110.50240667 232.37245433 C111.74265682 232.37278175 111.74265682 232.37278175 113.00796252 232.37311578 C114.68346965 232.37355925 116.35897678 232.37400581 118.03448391 232.37445545 C118.86559506 232.37467688 119.69670622 232.37489831 120.55300256 232.37512645 C134.02179131 232.37907497 147.49052597 232.39653049 160.95929382 232.41981497 C174.78399164 232.44352209 188.60866231 232.45599053 202.43338078 232.4571569 C210.19686655 232.458074 217.96028184 232.46383531 225.72374821 232.48197651 C232.33419082 232.49736885 238.94454119 232.5025031 245.55499832 232.49423841 C248.92794285 232.49032878 252.30055033 232.49290483 255.6734972 232.50529575 C259.33010483 232.51794288 262.98623274 232.51217741 266.64283657 232.50171375 C267.70888774 232.50977016 268.7749389 232.51782656 269.87329465 232.5261271 C275.25170616 232.4900332 279.43300569 232.41224898 283.93609524 229.13422108 C287.76897459 224.7158054 288.51580697 221.03330695 288.44402981 215.35382557 C288.45026977 214.58930812 288.45650973 213.82479068 288.46293879 213.03710604 C288.47884469 210.48517603 288.46627447 207.93420439 288.45367336 205.38226795 C288.45909556 203.54877129 288.46621878 201.71527899 288.4749136 199.88179493 C288.49313819 194.90865667 288.48608295 189.93585059 288.47339725 184.96270657 C288.46326515 179.75648197 288.47266352 174.55028567 288.47894192 169.34405994 C288.4862177 160.60137295 288.4766324 151.85882114 288.45757961 143.11615467 C288.43581104 133.01065629 288.44286246 122.90548073 288.46488523 112.79999018 C288.48304117 104.12126291 288.48559659 95.44263278 288.47513056 86.76389265 C288.46889671 81.58149042 288.46805706 76.39923989 288.48127651 71.21684742 C288.49283716 66.34447028 288.48480525 61.47250906 288.46169949 56.60017681 C288.45641356 54.81276038 288.4579242 53.02530891 288.46675014 51.23790646 C288.4776941 48.79633843 288.4639571 46.35610006 288.44402981 43.91461658 C288.45295269 43.20857902 288.46187558 42.50254146 288.47106886 41.77510881 C288.39208368 36.78019709 287.19875487 33.89530645 283.93609524 30.13422108 C278.60915546 26.26015309 272.98504266 26.71350718 266.66302395 26.75327015 C265.52281969 26.74859018 264.38261542 26.74391021 263.20785952 26.73908842 C259.38473146 26.72711621 255.56196037 26.73660471 251.73882961 26.74603748 C248.99893866 26.7436232 246.2590629 26.73674005 243.51917934 26.73010731 C236.84836469 26.71677061 230.17765133 26.71964741 223.50683272 26.72834523 C218.0851077 26.73512162 212.66341105 26.73603869 207.24168301 26.73277378 C206.4699025 26.73231408 205.69812199 26.73185438 204.90295419 26.73138075 C203.33507477 26.73042157 201.76719537 26.72944893 200.19931597 26.72846298 C185.49885902 26.71990927 170.79845822 26.72974291 156.09801048 26.74586408 C143.48557963 26.75926725 130.87323162 26.75693915 118.26080227 26.7431078 C103.6127872 26.72705164 88.96482133 26.72073324 74.31679869 26.72994459 C72.75470162 26.73090023 71.19260455 26.73184334 69.63050747 26.73277378 C68.8619349 26.73323661 68.09336234 26.73369943 67.30149969 26.73417629 C61.88656994 26.73676607 56.4716714 26.73239543 51.05674648 26.72533512 C44.45734208 26.71691952 37.85804472 26.71920147 31.25865257 26.73517735 C27.89177303 26.74305942 24.52521968 26.74453702 21.15831852 26.7362299 C17.5084222 26.72805373 13.85903055 26.73828927 10.20916653 26.75327015 C8.61315932 26.7432319 8.61315932 26.7432319 6.98490953 26.73299086 C0.18404767 26.78727518 -4.54580539 27.41195148 -9.37640476 32.63422108 Z M262.99859524 250.82172108 C260.75648646 255.70160489 260.33554497 260.36593417 262.06109524 265.44672108 C265.17015534 269.90304055 267.47005767 271.77953457 272.81109524 273.07172108 C277.16656255 273.40043559 280.15571277 272.38791063 283.93609524 270.13422108 C287.08488199 266.74321996 288.19238108 264.10962565 288.37359524 259.57172108 C288.10871454 254.3094246 286.38926967 251.58739551 282.68609524 247.88422108 C275.34800724 243.21452871 269.11159015 245.49749971 262.99859524 250.82172108 Z " fill="#000000" transform="translate(39.063904762268066,-0.13422107696533203)"/>
<path d="M0 0 C1.22009766 1.19496094 1.22009766 1.19496094 2.46484375 2.4140625 C6.54580167 6.37252721 9.95684986 9.56877521 15.65234375 10.6640625 C21.76563426 9.64518075 25.61647639 5.57458694 30.09765625 1.49609375 C33.4907626 -1.53283102 35.78810751 -3.05322222 40.40234375 -2.9609375 C48.90257332 -0.34942119 53.33612665 5.74654581 57.40234375 13.2890625 C64.12967776 27.43055257 67.48959619 42.7385709 70.40234375 58.0390625 C71.23983154 58.10057495 71.23983154 58.10057495 72.09423828 58.16333008 C77.52738617 58.65074404 82.21353369 59.72624038 87.27734375 61.7265625 C87.96352783 61.99202881 88.64971191 62.25749512 89.35668945 62.53100586 C106.44204827 69.30723291 106.44204827 69.30723291 111.40234375 76.0390625 C111.26171875 78.03125 111.26171875 78.03125 110.40234375 80.0390625 C88.39126567 97.56640245 43.38952319 93.2546006 16.90234375 93.2265625 C15.84408386 93.22595825 14.78582397 93.225354 13.69549561 93.22473145 C-2.14630313 93.20020807 -17.85498717 92.98728318 -33.59765625 91.0390625 C-34.69142578 90.90483887 -35.78519531 90.77061523 -36.91210938 90.63232422 C-71.09371302 86.26531968 -71.09371302 86.26531968 -79.59765625 79.0390625 C-79.27448108 76.07998983 -78.99178195 74.45325942 -76.91015625 72.265625 C-66.28113387 64.90430883 -51.80319613 57.7470306 -38.59765625 58.0390625 C-38.49026123 57.45205566 -38.38286621 56.86504883 -38.2722168 56.26025391 C-29.75509587 11.56177335 -29.75509587 11.56177335 -14.59765625 -0.9609375 C-9.38287571 -3.67262338 -4.76912092 -3.60014843 0 0 Z " fill="#000000" transform="translate(161.59765625,56.9609375)"/>
<path d="M0 0 C6.21219729 0.46152011 12.42088803 0.93147834 18.62109375 1.53515625 C46.30474668 4.12080848 74.15507368 3.72567116 101.83203125 1.27001953 C107.54986887 0.78266377 113.27521547 0.39589677 119 0 C118.27783202 15.48209432 115.08340844 32.81430859 104.5078125 44.83203125 C101.1684607 47.71885407 98.28306656 48.24796701 94 48 C85.40433311 46.50075577 77.91811122 42.10107506 70.62109375 37.5 C66.26584767 34.83383196 62.63271783 33.08067563 57.4453125 33.37890625 C52.10191536 34.73609498 47.61588052 38.09169358 43 41 C35.17613613 45.35788089 27.36666974 49.19836536 18.16796875 47.7734375 C12.71833851 45.82924509 10.05282137 41.09419903 7.5625 36.140625 C2.77264516 24.67918663 0.93364976 12.3251648 0 0 Z M17 15 C17.40245963 20.83566459 18.12453544 24.37097288 22 29 C25.18676173 31.74415594 26.6198866 32.00613086 30.875 31.9375 C36.04952457 31.05547877 40.27503974 28.72496026 44 25 C44.06137113 22.94021807 44.06137113 22.94021807 43 21 C35.43884996 16.80088582 25.60803639 14.81749746 17 15 Z M84.5 16.875 C83.75363281 17.04902344 83.00726563 17.22304687 82.23828125 17.40234375 C78.3457795 18.33241054 74.6761288 19.38075279 71 21 C71.28288477 24.39461728 71.74132059 25.74132059 74.1875 28.1875 C78.42142189 30.91602744 81.49165556 32.05292437 86.5625 31.875 C90.46745419 30.88101166 92.23508158 29.918525 95 27 C97.16853433 22.88726249 98.42427867 19.66706537 98 15 C93.27169288 14.71855315 89.05538122 15.76565846 84.5 16.875 Z " fill="#000000" transform="translate(118,157)"/>
<path d="M0 0 C1.78143235 -0.00378741 3.56286175 -0.00929093 5.34428406 -0.01637268 C10.16244264 -0.03028844 14.98024257 -0.01918526 19.79838109 -0.00266147 C24.85016334 0.01122974 29.90192562 0.0047244 34.95372009 0.00120544 C43.43470004 -0.00149321 51.91553818 0.01195016 60.39648438 0.03515625 C70.19125002 0.06177236 79.98577876 0.06350905 89.78056818 0.05176789 C99.21790847 0.04097668 108.65516335 0.04718718 118.09249687 0.06132317 C122.1022793 0.06707044 126.11199898 0.06701022 130.1217823 0.06225777 C134.8455939 0.05747401 139.56914713 0.0676475 144.29290962 0.08921242 C146.02304717 0.09476111 147.75320964 0.09526326 149.48334885 0.09025955 C151.85161462 0.08427089 154.21909987 0.09687934 156.58729553 0.11402893 C157.6053617 0.10501386 157.6053617 0.10501386 158.64399487 0.09581667 C166.19508507 0.19472278 172.44282219 2.7700014 177.92163086 7.92358398 C184.03267716 14.4549668 182.39819336 18.69490502 182.39819336 28.50170898 C110.45819336 28.50170898 38.51819336 28.50170898 -35.60180664 28.50170898 C-35.60180664 18.61274622 -35.22980076 14.16627285 -29.41430664 6.68920898 C-20.32699665 -0.37869879 -11.02037152 -0.06682065 0 0 Z " fill="#000000" transform="translate(103.601806640625,326.498291015625)"/>
</svg>
